<svg width="48" height="48" viewBox="0 0 48 48" fill="none" xmlns="http://www.w3.org/2000/svg">
<path d="M24.4162 35.462C25.1072 30.416 23.8072 26.292 23.2842 24.9C21.5772 24.597 16.5692 23.423 11.9902 19.618C11.9512 19.596 11.9082 19.583 11.8712 19.555C11.8152 19.512 11.7822 19.454 11.7382 19.403C9.50917 17.496 7.40017 14.96 5.84817 11.574C4.75517 13.168 3.86817 14.914 3.22217 16.773C4.29817 27.375 15.8522 33.987 24.4162 35.462Z" fill="white"/>
<path d="M24.048 37.427C15.989 36.021 5.499 30.326 2.189 21.156C2.069 22.088 2 23.036 2 24C2 34.797 9.78 43.771 20.039 45.637C22.205 42.88 23.423 40.067 24.048 37.427Z" fill="white"/>
<path d="M33.7339 17.953C29.0319 19.887 26.0799 23.056 25.1399 24.177C25.7329 25.816 27.2179 30.741 26.2079 36.608C26.2079 36.649 26.2219 36.687 26.2159 36.729C26.2059 36.809 26.1719 36.879 26.1439 36.951C25.6049 39.824 24.4639 42.906 22.3179 45.931C22.8739 45.973 23.4339 46.001 23.9999 46.001C25.4129 46.001 26.7929 45.863 28.1319 45.608C36.7579 39.385 36.7219 26.111 33.7339 17.954V17.953Z" fill="white"/>
<path d="M35.6172 17.282C38.4182 24.97 38.7192 36.885 32.4312 44.324C40.3972 41.016 46.0002 33.164 46.0002 24.001C46.0002 21.409 45.5482 18.924 44.7252 16.615C41.2702 16.124 38.2242 16.49 35.6172 17.283V17.282Z" fill="white"/>
<path d="M43.847 14.498C42.996 12.723 41.91 11.084 40.636 9.612C30.923 5.257 19.434 11.948 13.874 18.62C17.891 21.733 22.105 22.686 23.577 22.93C24.698 21.599 28.226 17.841 33.819 15.781C33.853 15.762 33.878 15.732 33.915 15.717C33.969 15.695 34.024 15.697 34.079 15.685C36.852 14.702 40.122 14.147 43.847 14.498Z" fill="#0088ED"/>
<path d="M12.3548 17.319C17.6048 11.044 27.7788 4.81499 37.3708 6.53399C33.6648 3.69199 29.0308 1.99899 23.9988 1.99899C17.2928 1.99899 11.2928 5.00299 7.25684 9.73399C8.56184 12.989 10.3788 15.457 12.3538 17.318L12.3548 17.319Z" fill="#0088ED"/>
</svg>
